# xmcd CD database file
#
# Track frame offsets:
#	182
#	18222
#	48790
#	76905
#	107132
#
# Disc length: 1808 seconds
#
# Revision: 2
# Processed by: cddbd v1.4b41PL1 Copyright (c) Steve Scherf et al.
# Submitted via: Feurio! 1.51.9ß - http://www.feurio.com
#
DISCID=2c070e05
DTITLE=AMR DIAB - Habibe
DYEAR=1900
DGENRE=
TTITLE0=Habibe (7"Master)
TTITLE1=Habibe (12" Club Mix)
TTITLE2=Habibe (Shazz House Mix)
TTITLE3=Habibe (Klubbheads Mix)
TTITLE4=Habibe (Rhythm Masters Vocal Club Mix)
EXTD=
EXTT0=
EXTT1=
EXTT2=
EXTT3=
EXTT4=
PLAYORDER=
